<svg xmlns="http://www.w3.org/2000/svg" width="500" height="110" viewBox="0 0 132.29 29.104" xmlns:v="https://vecta.io/nano"><path d="M50.243 8.157a2.46 2.46 0 0 0-2.427 2.124c-.663.456-1.11 1.233-1.11 2.094a2.64 2.64 0 0 0 1.276 2.258c-.01.046-.007.095.008.141l1.996 5.987c.037.111.141.186.258.186a.27.27 0 0 0 .257-.186l1.996-5.987c.015-.046.018-.095.008-.142.754-.447 1.277-1.302 1.277-2.259 0-.888-.451-1.689-1.119-2.156a2.44 2.44 0 0 0-2.419-2.06zm14.432 0c-.018.001-.036.004-.054.008-.144.036-.227.177-.188.313.271.948 1.646 5.702 2.201 6.233.566.543 1.929 2.385 1.066 3.21-.528.505-1.738.907-2.906 1.296-1.047.348-2.129.708-2.882 1.18l-.392.015c-.55.028-1.576.077-1.845-.168a.12.12 0 0 1-.046-.102c0-.564.964-.766 1.866-.766a.27.27 0 0 0 .237-.141c.504-.965 1.537-2.473 2.614-3.504.082-.076.103-.196.05-.294l-3.187-6.609c-.054-.131-.21-.195-.345-.142a.25.25 0 0 0-.148.331c1.04 2.492 2.097 4.526 3.121 6.487-1.019 1.014-1.984 2.406-2.505 3.365-1.423.032-2.233.493-2.233 1.273 0 .183.072.347.211.474.289.262.811.331 1.448.331h.001l.79-.026.446-.016c.054 0 .106-.015.15-.044.698-.454 1.78-.813 2.826-1.162 1.282-.427 2.496-.829 3.108-1.418 1.262-1.208-.52-3.408-1.066-3.93-.301-.289-1.286-3.28-2.063-6.006-.033-.119-.148-.194-.272-.188zm-30.553.286a6.12 6.12 0 0 0-6.109 6.109 6.12 6.12 0 0 0 6.109 6.109 6.09 6.09 0 0 0 2.19-.404 2.53 2.53 0 0 0 1.373.404h.001a2.55 2.55 0 0 0 2.544-2.546 2.53 2.53 0 0 0-.405-1.374 6.07 6.07 0 0 0 .405-2.189c0-3.368-2.74-6.109-6.108-6.109zm16.121.257a1.9 1.9 0 0 1 1.768 1.194c-.217-.069-.445-.107-.68-.107-.15 0-.272.122-.272.273s.122.272.272.272c1.015 0 1.905.953 1.905 2.041s-.891 2.041-1.905 2.041h-2.177c-1.015 0-1.905-.954-1.905-2.041 0-1.069.873-1.973 1.905-1.973.658 0 1.234.294 1.579.806.084.125.253.157.377.073s.157-.253.074-.378c-.442-.655-1.201-1.045-2.03-1.045-.244 0-.481.04-.706.112.264-.74.977-1.268 1.795-1.268zm-16.122.253a5.61 5.61 0 0 1 5.6 5.6 5.58 5.58 0 0 1-.272 1.73 2.55 2.55 0 0 0-.895-.561 4.58 4.58 0 0 0 .151-1.17c0-.14-.114-.254-.254-.254s-.255.114-.255.254c0 .355-.046.706-.136 1.045-.122-.018-.247-.028-.374-.028-1.411.008-2.545 1.147-2.545 2.545 0 .128.01.254.028.377a3.72 3.72 0 0 1-1.045.133 4.08 4.08 0 0 1-4.073-4.072c0-.14-.114-.254-.254-.254s-.254.114-.254.254a4.59 4.59 0 0 0 4.581 4.581h0c.439 0 .802-.046 1.171-.148a2.55 2.55 0 0 0 .561.895 5.57 5.57 0 0 1-1.732.272 5.61 5.61 0 0 1-5.6-5.599 5.61 5.61 0 0 1 5.6-5.6zm59.549.055c-.133 0-.241.108-.241.241v10.605c0 .133.108.241.241.241h6.266c.133 0 .241-.108.241-.241v-.936c.237.051.464.082.672.082h0c.363 0 .643-.097.834-.288l1.046-1.046c.015-.014.028-.032.038-.05.307-.538.654-1.79-.222-2.665l-1.357-1.357c-.277-.279-.729-.3-1.011-.055V9.25c0-.133-.108-.241-.241-.241zm32.429.182c-.96 0-1.718.292-2.255.866-1.215 1.303-1.044 3.772-.921 5.576.051.745.123 1.764-.036 1.889a.22.22 0 0 0-.019.014c-.756.362-1.219 1.138-1.219 2.152 0 .125.102.226.227.226h0c.125 0 .227-.101.227-.226 0-1.169.71-1.924 1.811-1.924h1.132c.125 0 .226-.102.226-.227v-.654c.262.128.547.202.849.202h0c.343 0 .668-.095.962-.259v.695c-.006.074.024.148.088.197.046.035.101.05.154.046h1.116c.565 0 1.026.199 1.342.551.012.018.026.034.042.048.274.33.427.783.427 1.325 0 .125.102.226.227.226h0c.125 0 .227-.101.227-.226 0-.673-.205-1.241-.563-1.653-.334-.674-.302-1.804-.268-2.998.052-1.751.108-3.738-1.009-4.89-.625-.644-1.529-.956-2.764-.956zm-15.062.171a2.13 2.13 0 0 0-1.496.607c-.401.395-.622.918-.622 1.475s.221 1.081.622 1.475c.188.185.407.331.649.436v1.528l-.611-.628c-.312-.312-.883-.301-1.204.02-.304.304-.32.792-.04 1.186.191.27.42.769.663 1.298.642 1.398 1.371 2.983 2.397 2.983h2.444c.028 0 .055-.005.081-.015.078-.03 1.894-.777 1.894-2.589v-2.34c0-.456-.396-.843-.865-.843-.177 0-.343.052-.48.141a.88.88 0 0 0-.818-.573c-.177 0-.343.052-.48.14a.88.88 0 0 0-.818-.573l.18-.169c.401-.395.622-.918.622-1.475s-.221-1.081-.622-1.475c-.412-.405-.954-.607-1.496-.607zm-17.126.129h5.784v4.299a.72.72 0 0 0-.483.2v-3.777c0-.133-.108-.241-.241-.241h-4.338c-.133 0-.241.109-.241.241v6.748c0 .133.108.241.241.241h2.164a.76.76 0 0 0-.009.124c.001.066.009.129.024.187l-.032-.001a.78.78 0 0 0-.778.777.78.78 0 0 0 .778.779.78.78 0 0 0 .778-.779.77.77 0 0 0-.036-.235c.256.057.627.193 1.02.338l1.154.398v.821h-5.784zm32.189.152c1.105 0 1.903.269 2.439.821.985 1.014.93 2.897.882 4.56-.027.925-.051 1.813.093 2.528a2.39 2.39 0 0 0-1.076-.24h-.693c1.826-2.753.358-5.359-.138-6.24l-.099-.18c-.033-.067-.098-.113-.171-.122s-.148.017-.198.072c-.177.195-.577.254-1.001.318-.691.102-1.553.23-2.054 1.017-.295.463-.427 1.112-.398 1.958a2.82 2.82 0 0 0 .019.34c.063.789.251 1.732.565 2.837h-.359a2.63 2.63 0 0 0-.503.047c.06-.4.02-.987-.034-1.758-.118-1.719-.281-4.075.801-5.234.454-.488 1.084-.724 1.924-.724zm-15.064.153a1.7 1.7 0 0 1 1.193.484c.317.311.492.726.492 1.166s-.175.854-.492 1.166c-.094.092-.198.172-.309.24v-1.524c0-.461-.388-.835-.865-.835-.469 0-.865.386-.865.843v1.537a1.68 1.68 0 0 1-.345-.262c-.318-.309-.493-.724-.493-1.166a1.63 1.63 0 0 1 .492-1.166c.329-.323.76-.484 1.192-.484zm-33.273.504c-.106 0-.202.064-.244.161l-2.161 5.016a1.85 1.85 0 0 0-.253.935v.531c0 1.026.834 1.86 1.86 1.86H86c1.026 0 1.861-.835 1.861-1.861v-.531a1.85 1.85 0 0 0-.28-.979l-2.133-4.971c-.041-.098-.137-.161-.244-.161zm17.111.154h3.856v3.773a.72.72 0 0 0-.453.205.73.73 0 0 0-.141.199l-1.005-1.005c-.287-.287-.76-.298-1.04-.017-.287.287-.277.746.023 1.045l1.933 1.933-.531-.019c-.162 0-.315.054-.441.152h-2.201zm-16.936.378h7.09l1.652 3.849a1.85 1.85 0 0 0-.68-.129h-9.035a1.85 1.85 0 0 0-.687.132zm33.117.096c.234 0 .432.185.432.402v2.595c0 .119.097.216.216.216s.216-.097.216-.216c0-.218.198-.402.432-.402s.433.187.433.41v.423c0 .119.097.216.216.216s.216-.097.216-.216c0-.218.198-.402.432-.402s.433.187.433.41v.423c0 .12.097.216.216.216s.216-.097.216-.216c0-.217.198-.401.432-.401s.433.188.433.411v2.34c0 1.406-1.339 2.063-1.586 2.172h-2.4c-.75 0-1.475-1.578-2.004-2.731l-.704-1.367c-.127-.179-.184-.454-.007-.63.083-.084.198-.132.315-.132h0c.106 0 .205.039.274.111l.981 1.008c.062.062.155.082.237.049s.135-.112.135-.2v-4.079c0-.221.198-.41.433-.41zm16.181.408c.279.496.831 1.506.926 2.753-.004.017-.007.036-.007.054 0 1.127-.908 2.49-2.037 2.49-1.04 0-1.862-1.163-1.968-2.254l-.011-.184-.001-.052c0-.009-.001-.018-.002-.027-.025-.743.083-1.31.328-1.693.391-.614 1.077-.715 1.74-.814.383-.057.751-.112 1.031-.273zm-95.407.163c-.701 0-1.272.571-1.272 1.272 0 .14.114.254.254.254s.254-.114.254-.254c0-.421.343-.763.764-.763s.763.342.763.763c0 .14.114.254.254.254s.254-.114.254-.254c0-.701-.571-1.272-1.272-1.272zm4.581 0c-.701 0-1.272.571-1.272 1.272 0 .14.114.254.254.254s.254-.114.254-.254c0-.421.343-.763.764-.763s.763.342.763.763c0 .14.115.254.254.254s.254-.114.254-.254c0-.701-.57-1.272-1.272-1.272zm33.075 1.759c-.085.001-.169.041-.221.113l-1.066 1.53c-.081.117-.048.275.074.353.046.03.096.043.147.043a.27.27 0 0 0 .222-.113l1.066-1.53c.081-.117.048-.275-.074-.354-.045-.029-.097-.043-.149-.043zm31.156.569c.081-.005.149.049.206.106l1.357 1.356c.775.775.258 1.87.158 2.061l-1.02 1.021c-.098.097-.263.147-.493.147-.584 0-1.447-.319-2.14-.575l-1.17-.375c-.267-.049-.269-.177-.269-.247a.28.28 0 0 1 .078-.201c.032-.033.086-.07.164-.07h0l1.128.038c.097.003.19-.054.23-.145a.24.24 0 0 0-.05-.267l-2.365-2.364c-.096-.095-.134-.252-.022-.364.098-.097.253-.089.358.017l1.505 1.505c.094.094.247.094.341 0s.094-.247 0-.341c-.058-.056-.088-.125-.088-.195 0-.061.024-.116.07-.163.151-.151.273-.068.363.023l.241.241c.094.094.247.094.341 0s.094-.247 0-.341-.129-.247-.018-.359c.152-.151.273-.068.365.023l.249.251c.095.093.248.093.341 0a.24.24 0 0 0 .001-.341c-.111-.11-.118-.258-.018-.359.057-.056.11-.08.158-.083zm-.695.003h.029c-.011.006-.02.003-.029 0zM48.622 14.96h3.236l-1.618 4.854zm28.342.123h9.035a1.33 1.33 0 0 1 1.109.599c.01.023.023.044.039.062a1.32 1.32 0 0 1 .18.667v.531a1.33 1.33 0 0 1-1.329 1.329h-9.035a1.33 1.33 0 0 1-1.328-1.329v-.531a1.32 1.32 0 0 1 .174-.656c.005-.007.008-.015.012-.022a1.33 1.33 0 0 1 1.141-.65zm-6.42.724c-.026 0-.053.004-.08.012l-1.599.51c-.138.045-.214.189-.167.323.038.107.141.174.253.174a.25.25 0 0 0 .085-.014l1.599-.51c.138-.045.214-.189.168-.323a.27.27 0 0 0-.259-.173zm-32.862.353a2.76 2.76 0 0 1 .639.937h-1.277c.189-.46.467-.774.639-.937zm90.148.033c-.082.2-.181.401-.299.603v-.294c.106-.095.206-.198.299-.309zm-90.866.017a3.24 3.24 0 0 0-.464.887h-.581c.234-.404.603-.72 1.044-.887zm1.436 0c.442.167.81.483 1.044.887h-.58a3.24 3.24 0 0 0-.464-.887zm86.053.016a2.78 2.78 0 0 0 .363.363v.722h-.077l-.286-1.085zm-47.753.452c-.147 0-.266.12-.266.266s.119.266.266.266h1.063c.147 0 .266-.12.266-.266s-.119-.266-.266-.266zm2.126 0c-.147 0-.266.12-.266.266s.119.266.266.266h1.063c.147 0 .266-.12.266-.266s-.119-.266-.266-.266zm2.126 0c-.147 0-.266.12-.266.266s.119.266.266.266h1.063c.146 0 .266-.12.266-.266s-.12-.266-.266-.266zm2.126 0c-.146 0-.265.12-.265.266s.119.266.265.266h1.063c.146 0 .266-.12.266-.266s-.12-.266-.266-.266zm2.126 0c-.146 0-.266.12-.266.266s.12.266.266.266h1.063c.146 0 .266-.12.266-.266s-.12-.266-.266-.266zm-49.491.929h.665a3.23 3.23 0 0 0 0 1.018h-.665 0c-.042-.163-.064-.333-.064-.509a2.03 2.03 0 0 1 .065-.509zm1.182 0h1.58a2.71 2.71 0 0 1 .048.509c0 .181-.018.351-.048.509h-1.579a2.68 2.68 0 0 1-.049-.509c0-.181.018-.35.048-.509zm2.097 0h.664a2.03 2.03 0 0 1 .065.509 2.04 2.04 0 0 1-.064.509h-.665a3.23 3.23 0 0 0 0-1.018zm29.962.241a.27.27 0 0 0-.22.113c-.081.117-.048.275.074.354l1.599 1.02c.046.03.096.043.147.043h0c.086 0 .17-.04.222-.114.081-.117.048-.275-.074-.353l-1.599-1.02c-.046-.029-.098-.042-.149-.042zm27.827.149c.163 0 .296.132.296.295s-.133.297-.296.297-.296-.133-.296-.297.133-.295.296-.295zm-28.89.87c-.026 0-.053.004-.08.011-.141.041-.22.183-.177.318l.488 1.53c.036.11.142.181.255.181.025 0 .052-.003.077-.012.142-.042.22-.183.177-.318l-.488-1.53c-.035-.11-.138-.18-.253-.18zm-31.969.267h.581a3.24 3.24 0 0 0 .464.887c-.442-.167-.81-.483-1.045-.887zm1.126 0h1.275c-.189.459-.467.773-.638.936a2.81 2.81 0 0 1-.637-.936zm1.818 0h.58c-.234.404-.602.72-1.044.887.17-.23.342-.527.464-.887z"/></svg>