<svg xmlns="http://www.w3.org/2000/svg" width="64" height="64" viewBox="0 0 16.933 16.933" xmlns:v="https://vecta.io/nano"><path d="M12.745 1.654l-.029.001.029-.001zm-.459.058c.044.149.072.301.083.456a2.03 2.03 0 0 1-1.885 2.162c-.083.005-.167.005-.25 0a3.89 3.89 0 0 0-1.553-.322H8.25c-2.25 0-4.061 1.906-4.061 4.274v.24c0 2.367 1.811 4.274 4.061 4.274h.431c2.25 0 4.061-1.906 4.061-4.273v-.24a4.52 4.52 0 0 0-.14-1.122.312.312 0 0 1 .202-.255h0l.076-.029a2.66 2.66 0 0 0 1.839-2.712c-.088-1.277-1.16-2.304-2.432-2.453zM8.465 6.253a2.215 2.214 0 0 1 2.215 2.214 2.215 2.214 0 0 1-2.215 2.214A2.215 2.214 0 0 1 6.25 8.467a2.215 2.214 0 0 1 2.215-2.214z" fill="#03a9f4"/><path d="M8.354 0a8.489 8.449 44.286 0 0-5.562 2.153 8.489 8.449 44.286 0 0-2.075 9.681l.849-.849c.344-.344.898-.344 1.242 0s.344.898 0 1.242L1.62 13.414a8.489 8.449 44.286 0 0 0 .001l-.88.88c-.344.344-.344.897 0 1.241s.898.344 1.242 0l1.132-1.131c.346-.288.858-.27 1.183.054.344.344.344.897 0 1.241l-.073.073a8.489 8.449 44.286 0 0 9.92-.996 8.489 8.449 44.286 0 0 2.785-6.559h0a1.54 1.539 0 0 0-2.568-1.206 1.54 1.539 0 0 0-.506 1.042h-.005a5.414 5.388 44.286 0 1 .002.06 1.54 1.539 0 0 0 .007.186 5.414 5.388 44.286 0 1-1.77 4.191 5.414 5.388 44.286 0 1-7.629-.425 5.414 5.388 44.286 0 1 .389-7.626 5.414 5.388 44.286 0 1 4.339-1.315 1.54 1.539 0 0 0 .201.029 5.414 5.388 44.286 0 1 .061.009v-.005A1.54 1.539 0 0 0 10.647.59 1.54 1.539 0 0 0 9.613.085V.084A8.489 8.449 44.286 0 0 8.354 0zM3.617 14.507a.603.603 0 1 0 0 1.206.603.603 0 1 0 0-1.206z" fill="#fff"/></svg>